mtllib ../Materials/default.mtl
o BuiltinCylinder
v 0.500000 0.500000 0.000000
v 0.490393 0.500000 0.097545
v 0.490393 -0.500000 0.097545
v 0.500000 -0.500000 0.000000
v 0.490393 0.500000 0.097545
v 0.461940 0.500000 0.191342
v 0.461940 -0.500000 0.191342
v 0.490393 -0.500000 0.097545
v 0.461940 0.500000 0.191342
v 0.415735 0.500000 0.277785
v 0.415735 -0.500000 0.277785
v 0.461940 -0.500000 0.191342
v 0.415735 0.500000 0.277785
v 0.353553 0.500000 0.353553
v 0.353553 -0.500000 0.353553
v 0.415735 -0.500000 0.277785
v 0.353553 0.500000 0.353553
v 0.277785 0.500000 0.415735
v 0.277785 -0.500000 0.415735
v 0.353553 -0.500000 0.353553
v 0.277785 0.500000 0.415735
v 0.191342 0.500000 0.461940
v 0.191342 -0.500000 0.461940
v 0.277785 -0.500000 0.415735
v 0.191342 0.500000 0.461940
v 0.097545 0.500000 0.490393
v 0.097545 -0.500000 0.490393
v 0.191342 -0.500000 0.461940
v 0.097545 0.500000 0.490393
v 0.000000 0.500000 0.500000
v 0.000000 -0.500000 0.500000
v 0.097545 -0.500000 0.490393
v 0.000000 0.500000 0.500000
v -0.097545 0.500000 0.490393
v -0.097545 -0.500000 0.490393
v 0.000000 -0.500000 0.500000
v -0.097545 0.500000 0.490393
v -0.191342 0.500000 0.461940
v -0.191342 -0.500000 0.461940
v -0.097545 -0.500000 0.490393
v -0.191342 0.500000 0.461940
v -0.277785 0.500000 0.415735
v -0.277785 -0.500000 0.415735
v -0.191342 -0.500000 0.461940
v -0.277785 0.500000 0.415735
v -0.353553 0.500000 0.353553
v -0.353553 -0.500000 0.353553
v -0.277785 -0.500000 0.415735
v -0.353553 0.500000 0.353553
v -0.415735 0.500000 0.277785
v -0.415735 -0.500000 0.277785
v -0.353553 -0.500000 0.353553
v -0.415735 0.500000 0.277785
v -0.461940 0.500000 0.191342
v -0.461940 -0.500000 0.191342
v -0.415735 -0.500000 0.277785
v -0.461940 0.500000 0.191342
v -0.490393 0.500000 0.097545
v -0.490393 -0.500000 0.097545
v -0.461940 -0.500000 0.191342
v -0.490393 0.500000 0.097545
v -0.500000 0.500000 0.000000
v -0.500000 -0.500000 0.000000
v -0.490393 -0.500000 0.097545
v -0.500000 0.500000 0.000000
v -0.490393 0.500000 -0.097545
v -0.490393 -0.500000 -0.097545
v -0.500000 -0.500000 0.000000
v -0.490393 0.500000 -0.097545
v -0.461940 0.500000 -0.191342
v -0.461940 -0.500000 -0.191342
v -0.490393 -0.500000 -0.097545
v -0.461940 0.500000 -0.191342
v -0.415735 0.500000 -0.277785
v -0.415735 -0.500000 -0.277785
v -0.461940 -0.500000 -0.191342
v -0.415735 0.500000 -0.277785
v -0.353553 0.500000 -0.353553
v -0.353553 -0.500000 -0.353553
v -0.415735 -0.500000 -0.277785
v -0.353553 0.500000 -0.353553
v -0.277785 0.500000 -0.415735
v -0.277785 -0.500000 -0.415735
v -0.353553 -0.500000 -0.353553
v -0.277785 0.500000 -0.415735
v -0.191342 0.500000 -0.461940
v -0.191342 -0.500000 -0.461940
v -0.277785 -0.500000 -0.415735
v -0.191342 0.500000 -0.461940
v -0.097545 0.500000 -0.490393
v -0.097545 -0.500000 -0.490393
v -0.191342 -0.500000 -0.461940
v -0.097545 0.500000 -0.490393
v -0.000000 0.500000 -0.500000
v -0.000000 -0.500000 -0.500000
v -0.097545 -0.500000 -0.490393
v -0.000000 0.500000 -0.500000
v 0.097545 0.500000 -0.490393
v 0.097545 -0.500000 -0.490393
v -0.000000 -0.500000 -0.500000
v 0.097545 0.500000 -0.490393
v 0.191342 0.500000 -0.461940
v 0.191342 -0.500000 -0.461940
v 0.097545 -0.500000 -0.490393
v 0.191342 0.500000 -0.461940
v 0.277785 0.500000 -0.415735
v 0.277785 -0.500000 -0.415735
v 0.191342 -0.500000 -0.461940
v 0.277785 0.500000 -0.415735
v 0.353553 0.500000 -0.353553
v 0.353553 -0.500000 -0.353553
v 0.277785 -0.500000 -0.415735
v 0.353553 0.500000 -0.353553
v 0.415735 0.500000 -0.277785
v 0.415735 -0.500000 -0.277785
v 0.353553 -0.500000 -0.353553
v 0.415735 0.500000 -0.277785
v 0.461940 0.500000 -0.191342
v 0.461940 -0.500000 -0.191342
v 0.415735 -0.500000 -0.277785
v 0.461940 0.500000 -0.191342
v 0.490393 0.500000 -0.097545
v 0.490393 -0.500000 -0.097545
v 0.461940 -0.500000 -0.191342
v 0.490393 0.500000 -0.097545
v 0.500000 0.500000 -0.000000
v 0.500000 -0.500000 -0.000000
v 0.490393 -0.500000 -0.097545
v 0.000000 0.500000 0.000000
v 0.500000 0.500000 0.000000
v 0.490393 0.500000 0.097545
v 0.461940 0.500000 0.191342
v 0.415735 0.500000 0.277785
v 0.353553 0.500000 0.353553
v 0.277785 0.500000 0.415735
v 0.191342 0.500000 0.461940
v 0.097545 0.500000 0.490393
v 0.000000 0.500000 0.500000
v -0.097545 0.500000 0.490393
v -0.191342 0.500000 0.461940
v -0.277785 0.500000 0.415735
v -0.353553 0.500000 0.353553
v -0.415735 0.500000 0.277785
v -0.461940 0.500000 0.191342
v -0.490393 0.500000 0.097545
v -0.500000 0.500000 0.000000
v -0.490393 0.500000 -0.097545
v -0.461940 0.500000 -0.191342
v -0.415735 0.500000 -0.277785
v -0.353553 0.500000 -0.353553
v -0.277785 0.500000 -0.415735
v -0.191342 0.500000 -0.461940
v -0.097545 0.500000 -0.490393
v -0.000000 0.500000 -0.500000
v 0.097545 0.500000 -0.490393
v 0.191342 0.500000 -0.461940
v 0.277785 0.500000 -0.415735
v 0.353553 0.500000 -0.353553
v 0.415735 0.500000 -0.277785
v 0.461940 0.500000 -0.191342
v 0.490393 0.500000 -0.097545
v 0.000000 -0.500000 0.000000
v 0.500000 -0.500000 0.000000
v 0.490393 -0.500000 0.097545
v 0.461940 -0.500000 0.191342
v 0.415735 -0.500000 0.277785
v 0.353553 -0.500000 0.353553
v 0.277785 -0.500000 0.415735
v 0.191342 -0.500000 0.461940
v 0.097545 -0.500000 0.490393
v 0.000000 -0.500000 0.500000
v -0.097545 -0.500000 0.490393
v -0.191342 -0.500000 0.461940
v -0.277785 -0.500000 0.415735
v -0.353553 -0.500000 0.353553
v -0.415735 -0.500000 0.277785
v -0.461940 -0.500000 0.191342
v -0.490393 -0.500000 0.097545
v -0.500000 -0.500000 0.000000
v -0.490393 -0.500000 -0.097545
v -0.461940 -0.500000 -0.191342
v -0.415735 -0.500000 -0.277785
v -0.353553 -0.500000 -0.353553
v -0.277785 -0.500000 -0.415735
v -0.191342 -0.500000 -0.461940
v -0.097545 -0.500000 -0.490393
v -0.000000 -0.500000 -0.500000
v 0.097545 -0.500000 -0.490393
v 0.191342 -0.500000 -0.461940
v 0.277785 -0.500000 -0.415735
v 0.353553 -0.500000 -0.353553
v 0.415735 -0.500000 -0.277785
v 0.461940 -0.500000 -0.191342
v 0.490393 -0.500000 -0.097545
vt 0.000000 1.000000
vt 0.031250 1.000000
vt 0.031250 0.000000
vt 0.000000 0.000000
vt 0.031250 1.000000
vt 0.062500 1.000000
vt 0.062500 0.000000
vt 0.031250 0.000000
vt 0.062500 1.000000
vt 0.093750 1.000000
vt 0.093750 0.000000
vt 0.062500 0.000000
vt 0.093750 1.000000
vt 0.125000 1.000000
vt 0.125000 0.000000
vt 0.093750 0.000000
vt 0.125000 1.000000
vt 0.156250 1.000000
vt 0.156250 0.000000
vt 0.125000 0.000000
vt 0.156250 1.000000
vt 0.187500 1.000000
vt 0.187500 0.000000
vt 0.156250 0.000000
vt 0.187500 1.000000
vt 0.218750 1.000000
vt 0.218750 0.000000
vt 0.187500 0.000000
vt 0.218750 1.000000
vt 0.250000 1.000000
vt 0.250000 0.000000
vt 0.218750 0.000000
vt 0.250000 1.000000
vt 0.281250 1.000000
vt 0.281250 0.000000
vt 0.250000 0.000000
vt 0.281250 1.000000
vt 0.312500 1.000000
vt 0.312500 0.000000
vt 0.281250 0.000000
vt 0.312500 1.000000
vt 0.343750 1.000000
vt 0.343750 0.000000
vt 0.312500 0.000000
vt 0.343750 1.000000
vt 0.375000 1.000000
vt 0.375000 0.000000
vt 0.343750 0.000000
vt 0.375000 1.000000
vt 0.406250 1.000000
vt 0.406250 0.000000
vt 0.375000 0.000000
vt 0.406250 1.000000
vt 0.437500 1.000000
vt 0.437500 0.000000
vt 0.406250 0.000000
vt 0.437500 1.000000
vt 0.468750 1.000000
vt 0.468750 0.000000
vt 0.437500 0.000000
vt 0.468750 1.000000
vt 0.500000 1.000000
vt 0.500000 0.000000
vt 0.468750 0.000000
vt 0.500000 1.000000
vt 0.531250 1.000000
vt 0.531250 0.000000
vt 0.500000 0.000000
vt 0.531250 1.000000
vt 0.562500 1.000000
vt 0.562500 0.000000
vt 0.531250 0.000000
vt 0.562500 1.000000
vt 0.593750 1.000000
vt 0.593750 0.000000
vt 0.562500 0.000000
vt 0.593750 1.000000
vt 0.625000 1.000000
vt 0.625000 0.000000
vt 0.593750 0.000000
vt 0.625000 1.000000
vt 0.656250 1.000000
vt 0.656250 0.000000
vt 0.625000 0.000000
vt 0.656250 1.000000
vt 0.687500 1.000000
vt 0.687500 0.000000
vt 0.656250 0.000000
vt 0.687500 1.000000
vt 0.718750 1.000000
vt 0.718750 0.000000
vt 0.687500 0.000000
vt 0.718750 1.000000
vt 0.750000 1.000000
vt 0.750000 0.000000
vt 0.718750 0.000000
vt 0.750000 1.000000
vt 0.781250 1.000000
vt 0.781250 0.000000
vt 0.750000 0.000000
vt 0.781250 1.000000
vt 0.812500 1.000000
vt 0.812500 0.000000
vt 0.781250 0.000000
vt 0.812500 1.000000
vt 0.843750 1.000000
vt 0.843750 0.000000
vt 0.812500 0.000000
vt 0.843750 1.000000
vt 0.875000 1.000000
vt 0.875000 0.000000
vt 0.843750 0.000000
vt 0.875000 1.000000
vt 0.906250 1.000000
vt 0.906250 0.000000
vt 0.875000 0.000000
vt 0.906250 1.000000
vt 0.937500 1.000000
vt 0.937500 0.000000
vt 0.906250 0.000000
vt 0.937500 1.000000
vt 0.968750 1.000000
vt 0.968750 0.000000
vt 0.937500 0.000000
vt 0.968750 1.000000
vt 1.000000 1.000000
vt 1.000000 0.000000
vt 0.968750 0.000000
vt 0.500000 0.500000
vt 1.000000 0.500000
vt 0.990393 0.597545
vt 0.961940 0.691342
vt 0.915735 0.777785
vt 0.853553 0.853553
vt 0.777785 0.915735
vt 0.691342 0.961940
vt 0.597545 0.990393
vt 0.500000 1.000000
vt 0.402455 0.990393
vt 0.308658 0.961940
vt 0.222215 0.915735
vt 0.146447 0.853553
vt 0.084265 0.777785
vt 0.038060 0.691342
vt 0.009607 0.597545
vt 0.000000 0.500000
vt 0.009607 0.402455
vt 0.038060 0.308658
vt 0.084265 0.222215
vt 0.146447 0.146447
vt 0.222215 0.084265
vt 0.308658 0.038060
vt 0.402455 0.009607
vt 0.500000 0.000000
vt 0.597545 0.009607
vt 0.691342 0.038060
vt 0.777785 0.084265
vt 0.853553 0.146447
vt 0.915735 0.222215
vt 0.961940 0.308658
vt 0.990393 0.402455
vt 0.500000 0.500000
vt 1.000000 0.500000
vt 0.990393 0.597545
vt 0.961940 0.691342
vt 0.915735 0.777785
vt 0.853553 0.853553
vt 0.777785 0.915735
vt 0.691342 0.961940
vt 0.597545 0.990393
vt 0.500000 1.000000
vt 0.402455 0.990393
vt 0.308658 0.961940
vt 0.222215 0.915735
vt 0.146447 0.853553
vt 0.084265 0.777785
vt 0.038060 0.691342
vt 0.009607 0.597545
vt 0.000000 0.500000
vt 0.009607 0.402455
vt 0.038060 0.308658
vt 0.084265 0.222215
vt 0.146447 0.146447
vt 0.222215 0.084265
vt 0.308658 0.038060
vt 0.402455 0.009607
vt 0.500000 0.000000
vt 0.597545 0.009607
vt 0.691342 0.038060
vt 0.777785 0.084265
vt 0.853553 0.146447
vt 0.915735 0.222215
vt 0.961940 0.308658
vt 0.990393 0.402455
vn 1.000000 0.000000 0.000000
vn 0.980785 0.000000 0.195090
vn 0.980785 0.000000 0.195090
vn 1.000000 0.000000 0.000000
vn 0.980785 0.000000 0.195090
vn 0.923880 0.000000 0.382683
vn 0.923880 0.000000 0.382683
vn 0.980785 0.000000 0.195090
vn 0.923880 0.000000 0.382683
vn 0.831470 0.000000 0.555570
vn 0.831470 0.000000 0.555570
vn 0.923880 0.000000 0.382683
vn 0.831470 0.000000 0.555570
vn 0.707107 0.000000 0.707107
vn 0.707107 0.000000 0.707107
vn 0.831470 0.000000 0.555570
vn 0.707107 0.000000 0.707107
vn 0.555570 0.000000 0.831470
vn 0.555570 0.000000 0.831470
vn 0.707107 0.000000 0.707107
vn 0.555570 0.000000 0.831470
vn 0.382683 0.000000 0.923880
vn 0.382683 0.000000 0.923880
vn 0.555570 0.000000 0.831470
vn 0.382683 0.000000 0.923880
vn 0.195090 0.000000 0.980785
vn 0.195090 0.000000 0.980785
vn 0.382683 0.000000 0.923880
vn 0.195090 0.000000 0.980785
vn 0.000000 0.000000 1.000000
vn 0.000000 0.000000 1.000000
vn 0.195090 0.000000 0.980785
vn 0.000000 0.000000 1.000000
vn -0.195090 0.000000 0.980785
vn -0.195090 0.000000 0.980785
vn 0.000000 0.000000 1.000000
vn -0.195090 0.000000 0.980785
vn -0.382683 0.000000 0.923880
vn -0.382683 0.000000 0.923880
vn -0.195090 0.000000 0.980785
vn -0.382683 0.000000 0.923880
vn -0.555570 0.000000 0.831470
vn -0.555570 0.000000 0.831470
vn -0.382683 0.000000 0.923880
vn -0.555570 0.000000 0.831470
vn -0.707107 0.000000 0.707107
vn -0.707107 0.000000 0.707107
vn -0.555570 0.000000 0.831470
vn -0.707107 0.000000 0.707107
vn -0.831470 0.000000 0.555570
vn -0.831470 0.000000 0.555570
vn -0.707107 0.000000 0.707107
vn -0.831470 0.000000 0.555570
vn -0.923880 0.000000 0.382683
vn -0.923880 0.000000 0.382683
vn -0.831470 0.000000 0.555570
vn -0.923880 0.000000 0.382683
vn -0.980785 0.000000 0.195090
vn -0.980785 0.000000 0.195090
vn -0.923880 0.000000 0.382683
vn -0.980785 0.000000 0.195090
vn -1.000000 0.000000 0.000000
vn -1.000000 0.000000 0.000000
vn -0.980785 0.000000 0.195090
vn -1.000000 0.000000 0.000000
vn -0.980785 0.000000 -0.195090
vn -0.980785 0.000000 -0.195090
vn -1.000000 0.000000 0.000000
vn -0.980785 0.000000 -0.195090
vn -0.923880 0.000000 -0.382683
vn -0.923880 0.000000 -0.382683
vn -0.980785 0.000000 -0.195090
vn -0.923880 0.000000 -0.382683
vn -0.831470 0.000000 -0.555570
vn -0.831470 0.000000 -0.555570
vn -0.923880 0.000000 -0.382683
vn -0.831470 0.000000 -0.555570
vn -0.707107 0.000000 -0.707107
vn -0.707107 0.000000 -0.707107
vn -0.831470 0.000000 -0.555570
vn -0.707107 0.000000 -0.707107
vn -0.555570 0.000000 -0.831470
vn -0.555570 0.000000 -0.831470
vn -0.707107 0.000000 -0.707107
vn -0.555570 0.000000 -0.831470
vn -0.382683 0.000000 -0.923880
vn -0.382683 0.000000 -0.923880
vn -0.555570 0.000000 -0.831470
vn -0.382683 0.000000 -0.923880
vn -0.195090 0.000000 -0.980785
vn -0.195090 0.000000 -0.980785
vn -0.382683 0.000000 -0.923880
vn -0.195090 0.000000 -0.980785
vn -0.000000 0.000000 -1.000000
vn -0.000000 0.000000 -1.000000
vn -0.195090 0.000000 -0.980785
vn -0.000000 0.000000 -1.000000
vn 0.195090 0.000000 -0.980785
vn 0.195090 0.000000 -0.980785
vn -0.000000 0.000000 -1.000000
vn 0.195090 0.000000 -0.980785
vn 0.382683 0.000000 -0.923880
vn 0.382683 0.000000 -0.923880
vn 0.195090 0.000000 -0.980785
vn 0.382683 0.000000 -0.923880
vn 0.555570 0.000000 -0.831470
vn 0.555570 0.000000 -0.831470
vn 0.382683 0.000000 -0.923880
vn 0.555570 0.000000 -0.831470
vn 0.707107 0.000000 -0.707107
vn 0.707107 0.000000 -0.707107
vn 0.555570 0.000000 -0.831470
vn 0.707107 0.000000 -0.707107
vn 0.831470 0.000000 -0.555570
vn 0.831470 0.000000 -0.555570
vn 0.707107 0.000000 -0.707107
vn 0.831470 0.000000 -0.555570
vn 0.923880 0.000000 -0.382683
vn 0.923880 0.000000 -0.382683
vn 0.831470 0.000000 -0.555570
vn 0.923880 0.000000 -0.382683
vn 0.980785 0.000000 -0.195090
vn 0.980785 0.000000 -0.195090
vn 0.923880 0.000000 -0.382683
vn 0.980785 0.000000 -0.195090
vn 1.000000 0.000000 -0.000000
vn 1.000000 0.000000 -0.000000
vn 0.980785 0.000000 -0.195090
vn 0.000000 1.000000 0.000000
vn 0.000000 1.000000 0.000000
vn 0.000000 1.000000 0.000000
vn 0.000000 1.000000 0.000000
vn 0.000000 1.000000 0.000000
vn 0.000000 1.000000 0.000000
vn 0.000000 1.000000 0.000000
vn 0.000000 1.000000 0.000000
vn 0.000000 1.000000 0.000000
vn 0.000000 1.000000 0.000000
vn 0.000000 1.000000 0.000000
vn 0.000000 1.000000 0.000000
vn 0.000000 1.000000 0.000000
vn 0.000000 1.000000 0.000000
vn 0.000000 1.000000 0.000000
vn 0.000000 1.000000 0.000000
vn 0.000000 1.000000 0.000000
vn 0.000000 1.000000 0.000000
vn 0.000000 1.000000 0.000000
vn 0.000000 1.000000 0.000000
vn 0.000000 1.000000 0.000000
vn 0.000000 1.000000 0.000000
vn 0.000000 1.000000 0.000000
vn 0.000000 1.000000 0.000000
vn 0.000000 1.000000 0.000000
vn 0.000000 1.000000 0.000000
vn 0.000000 1.000000 0.000000
vn 0.000000 1.000000 0.000000
vn 0.000000 1.000000 0.000000
vn 0.000000 1.000000 0.000000
vn 0.000000 1.000000 0.000000
vn 0.000000 1.000000 0.000000
vn 0.000000 1.000000 0.000000
vn 0.000000 -1.000000 0.000000
vn 0.000000 -1.000000 0.000000
vn 0.000000 -1.000000 0.000000
vn 0.000000 -1.000000 0.000000
vn 0.000000 -1.000000 0.000000
vn 0.000000 -1.000000 0.000000
vn 0.000000 -1.000000 0.000000
vn 0.000000 -1.000000 0.000000
vn 0.000000 -1.000000 0.000000
vn 0.000000 -1.000000 0.000000
vn 0.000000 -1.000000 0.000000
vn 0.000000 -1.000000 0.000000
vn 0.000000 -1.000000 0.000000
vn 0.000000 -1.000000 0.000000
vn 0.000000 -1.000000 0.000000
vn 0.000000 -1.000000 0.000000
vn 0.000000 -1.000000 0.000000
vn 0.000000 -1.000000 0.000000
vn 0.000000 -1.000000 0.000000
vn 0.000000 -1.000000 0.000000
vn 0.000000 -1.000000 0.000000
vn 0.000000 -1.000000 0.000000
vn 0.000000 -1.000000 0.000000
vn 0.000000 -1.000000 0.000000
vn 0.000000 -1.000000 0.000000
vn 0.000000 -1.000000 0.000000
vn 0.000000 -1.000000 0.000000
vn 0.000000 -1.000000 0.000000
vn 0.000000 -1.000000 0.000000
vn 0.000000 -1.000000 0.000000
vn 0.000000 -1.000000 0.000000
vn 0.000000 -1.000000 0.000000
vn 0.000000 -1.000000 0.000000
usemtl DefaultMaterial
f 1/1/1 2/2/2 3/3/3
f 1/1/1 3/3/3 4/4/4
f 5/5/5 6/6/6 7/7/7
f 5/5/5 7/7/7 8/8/8
f 9/9/9 10/10/10 11/11/11
f 9/9/9 11/11/11 12/12/12
f 13/13/13 14/14/14 15/15/15
f 13/13/13 15/15/15 16/16/16
f 17/17/17 18/18/18 19/19/19
f 17/17/17 19/19/19 20/20/20
f 21/21/21 22/22/22 23/23/23
f 21/21/21 23/23/23 24/24/24
f 25/25/25 26/26/26 27/27/27
f 25/25/25 27/27/27 28/28/28
f 29/29/29 30/30/30 31/31/31
f 29/29/29 31/31/31 32/32/32
f 33/33/33 34/34/34 35/35/35
f 33/33/33 35/35/35 36/36/36
f 37/37/37 38/38/38 39/39/39
f 37/37/37 39/39/39 40/40/40
f 41/41/41 42/42/42 43/43/43
f 41/41/41 43/43/43 44/44/44
f 45/45/45 46/46/46 47/47/47
f 45/45/45 47/47/47 48/48/48
f 49/49/49 50/50/50 51/51/51
f 49/49/49 51/51/51 52/52/52
f 53/53/53 54/54/54 55/55/55
f 53/53/53 55/55/55 56/56/56
f 57/57/57 58/58/58 59/59/59
f 57/57/57 59/59/59 60/60/60
f 61/61/61 62/62/62 63/63/63
f 61/61/61 63/63/63 64/64/64
f 65/65/65 66/66/66 67/67/67
f 65/65/65 67/67/67 68/68/68
f 69/69/69 70/70/70 71/71/71
f 69/69/69 71/71/71 72/72/72
f 73/73/73 74/74/74 75/75/75
f 73/73/73 75/75/75 76/76/76
f 77/77/77 78/78/78 79/79/79
f 77/77/77 79/79/79 80/80/80
f 81/81/81 82/82/82 83/83/83
f 81/81/81 83/83/83 84/84/84
f 85/85/85 86/86/86 87/87/87
f 85/85/85 87/87/87 88/88/88
f 89/89/89 90/90/90 91/91/91
f 89/89/89 91/91/91 92/92/92
f 93/93/93 94/94/94 95/95/95
f 93/93/93 95/95/95 96/96/96
f 97/97/97 98/98/98 99/99/99
f 97/97/97 99/99/99 100/100/100
f 101/101/101 102/102/102 103/103/103
f 101/101/101 103/103/103 104/104/104
f 105/105/105 106/106/106 107/107/107
f 105/105/105 107/107/107 108/108/108
f 109/109/109 110/110/110 111/111/111
f 109/109/109 111/111/111 112/112/112
f 113/113/113 114/114/114 115/115/115
f 113/113/113 115/115/115 116/116/116
f 117/117/117 118/118/118 119/119/119
f 117/117/117 119/119/119 120/120/120
f 121/121/121 122/122/122 123/123/123
f 121/121/121 123/123/123 124/124/124
f 125/125/125 126/126/126 127/127/127
f 125/125/125 127/127/127 128/128/128
f 129/129/129 131/131/131 130/130/130
f 129/129/129 132/132/132 131/131/131
f 129/129/129 133/133/133 132/132/132
f 129/129/129 134/134/134 133/133/133
f 129/129/129 135/135/135 134/134/134
f 129/129/129 136/136/136 135/135/135
f 129/129/129 137/137/137 136/136/136
f 129/129/129 138/138/138 137/137/137
f 129/129/129 139/139/139 138/138/138
f 129/129/129 140/140/140 139/139/139
f 129/129/129 141/141/141 140/140/140
f 129/129/129 142/142/142 141/141/141
f 129/129/129 143/143/143 142/142/142
f 129/129/129 144/144/144 143/143/143
f 129/129/129 145/145/145 144/144/144
f 129/129/129 146/146/146 145/145/145
f 129/129/129 147/147/147 146/146/146
f 129/129/129 148/148/148 147/147/147
f 129/129/129 149/149/149 148/148/148
f 129/129/129 150/150/150 149/149/149
f 129/129/129 151/151/151 150/150/150
f 129/129/129 152/152/152 151/151/151
f 129/129/129 153/153/153 152/152/152
f 129/129/129 154/154/154 153/153/153
f 129/129/129 155/155/155 154/154/154
f 129/129/129 156/156/156 155/155/155
f 129/129/129 157/157/157 156/156/156
f 129/129/129 158/158/158 157/157/157
f 129/129/129 159/159/159 158/158/158
f 129/129/129 160/160/160 159/159/159
f 129/129/129 161/161/161 160/160/160
f 129/129/129 130/130/130 161/161/161
f 162/162/162 163/163/163 164/164/164
f 162/162/162 164/164/164 165/165/165
f 162/162/162 165/165/165 166/166/166
f 162/162/162 166/166/166 167/167/167
f 162/162/162 167/167/167 168/168/168
f 162/162/162 168/168/168 169/169/169
f 162/162/162 169/169/169 170/170/170
f 162/162/162 170/170/170 171/171/171
f 162/162/162 171/171/171 172/172/172
f 162/162/162 172/172/172 173/173/173
f 162/162/162 173/173/173 174/174/174
f 162/162/162 174/174/174 175/175/175
f 162/162/162 175/175/175 176/176/176
f 162/162/162 176/176/176 177/177/177
f 162/162/162 177/177/177 178/178/178
f 162/162/162 178/178/178 179/179/179
f 162/162/162 179/179/179 180/180/180
f 162/162/162 180/180/180 181/181/181
f 162/162/162 181/181/181 182/182/182
f 162/162/162 182/182/182 183/183/183
f 162/162/162 183/183/183 184/184/184
f 162/162/162 184/184/184 185/185/185
f 162/162/162 185/185/185 186/186/186
f 162/162/162 186/186/186 187/187/187
f 162/162/162 187/187/187 188/188/188
f 162/162/162 188/188/188 189/189/189
f 162/162/162 189/189/189 190/190/190
f 162/162/162 190/190/190 191/191/191
f 162/162/162 191/191/191 192/192/192
f 162/162/162 192/192/192 193/193/193
f 162/162/162 193/193/193 194/194/194
f 162/162/162 194/194/194 163/163/163
